<svg width="40" height="40" viewBox="0 0 40 40" fill="none" xmlns="http://www.w3.org/2000/svg">
<g clip-path="url(#clip0_0_1)">
<path fill-rule="evenodd" clip-rule="evenodd" d="M142 27.16C142 27.16 142.28 27.16 142.82 27.16C142.963 27.1521 143.105 27.1869 143.227 27.2599C143.35 27.3329 143.449 27.4409 143.51 27.57C143.51 27.57 144.59 29.57 144.88 30.05C145.17 30.53 144.88 30.47 144.76 30.46C144.76 30.46 144.45 30.46 141.31 30.46C140.136 30.3703 139.032 29.8631 138.2 29.0304C137.367 28.1976 136.86 27.0943 136.77 25.92V18.92H134.3V16.28C134.3 15.92 134.71 15.87 134.71 15.87H136.78V13.25C136.784 13.1274 136.825 13.009 136.899 12.9106C136.972 12.8123 137.074 12.7388 137.19 12.7L139.49 12.04C139.83 11.94 140.08 12.04 140.08 12.39V16H143.66C144 16 144.07 16.41 144.07 16.41V19H140.07V25.06C140.07 26.82 142 27.13 142 27.13V27.16ZM131.4 30.16H129.2C128.77 30.16 128.79 29.61 128.79 29.61V19.45C128.79 18.83 127.96 18.62 127.96 18.62H123.42C122.74 18.62 122.73 19.45 122.73 19.45V29.77C122.731 29.8247 122.722 29.8791 122.702 29.93C122.682 29.9809 122.652 30.0273 122.614 30.0664C122.575 30.1055 122.53 30.1366 122.479 30.1579C122.429 30.1791 122.375 30.19 122.32 30.19H120.12C119.64 30.19 119.71 29.64 119.71 29.64V16.83C119.71 15.83 120.95 15.59 120.95 15.59H130.58C131.58 15.59 131.81 16.83 131.81 16.83V29.5C131.81 30.22 131.4 30.19 131.4 30.19V30.16ZM115.73 24.4H107.2V26.47C107.2 27.21 108.2 27.47 108.2 27.47H115C115.158 27.4803 115.312 27.5229 115.453 27.5951C115.595 27.6673 115.719 27.7677 115.82 27.89C115.82 27.89 116.43 29.14 116.65 29.68C116.87 30.22 116.24 30.23 116.24 30.23H106C104.76 30.23 104.49 28.71 104.49 28.71V17C104.49 16.33 105.49 16 105.49 16H115.81C116.81 16 117.05 17.23 117.05 17.23V23.16C117.05 24.16 115.81 24.39 115.81 24.39L115.73 24.4ZM114.21 19.45C114.21 19.45 114.13 18.76 113.53 18.76H107.88C107.88 18.76 107.2 18.94 107.2 19.45V21C107.2 21.1813 107.271 21.3553 107.399 21.4844C107.526 21.6135 107.699 21.6874 107.88 21.69H113.53C113.717 21.643 113.885 21.5369 114.007 21.3874C114.13 21.2379 114.201 21.053 114.21 20.86V19.45ZM101.28 30.19H99.08C98.79 30.19 98.67 29.77 98.67 29.77V19.45C98.67 18.81 97.84 18.62 97.84 18.62H95.78C95.2 18.62 95.09 19.45 95.09 19.45V29.77C95.09 30.12 94.68 30.19 94.68 30.19H92.48C92.17 30.19 92.06 29.77 92.06 29.77V19.45C92.06 18.79 91.24 18.62 91.24 18.62H89.17C88.54 18.62 88.49 19.45 88.49 19.45V29.77C88.4945 29.8263 88.4868 29.8829 88.4673 29.9359C88.4478 29.9889 88.417 30.0371 88.377 30.077C88.3371 30.117 88.2889 30.1478 88.2359 30.1673C88.1829 30.1868 88.1263 30.1945 88.07 30.19H85.87C85.8153 30.19 85.7612 30.1791 85.7108 30.1579C85.6603 30.1366 85.6147 30.1055 85.5765 30.0664C85.5383 30.0273 85.5083 29.9809 85.4883 29.93C85.4683 29.8791 85.4587 29.8247 85.46 29.77V16.69C85.46 15.94 86.56 15.59 86.56 15.59H100.32C101.42 15.59 101.69 16.97 101.69 16.97V29.77C101.69 30.25 101.28 30.19 101.28 30.19ZM81.28 24.4H72.8V26.47C72.8 27.21 73.8 27.47 73.8 27.47H80.68C80.8395 27.4807 80.9951 27.5234 81.1377 27.5955C81.2803 27.6677 81.4069 27.7678 81.51 27.89C81.51 27.89 82.11 29.14 82.33 29.68C82.55 30.22 81.92 30.23 81.92 30.23H71.56C70.32 30.23 70.05 28.71 70.05 28.71V17C70.05 16.33 71.05 16 71.05 16H81.33C82.33 16 82.57 17.23 82.57 17.23V23.16C82.57 24.16 81.33 24.39 81.33 24.39L81.28 24.4ZM79.77 19.45C79.77 19.45 79.68 18.76 79.08 18.76H73.49C73.49 18.76 72.8 18.94 72.8 19.45V21C72.8 21.0906 72.8178 21.1803 72.8525 21.264C72.8872 21.3478 72.938 21.4238 73.0021 21.4879C73.0662 21.552 73.1422 21.6028 73.226 21.6375C73.3097 21.6721 73.3994 21.69 73.49 21.69H79.13C79.3185 21.6434 79.4872 21.5377 79.6113 21.3883C79.7355 21.239 79.8086 21.0539 79.82 20.86V19.45H79.77ZM68 30.19H62.76C61.7028 30.1398 60.7002 29.7059 59.9399 28.9696C59.1797 28.2333 58.714 27.245 58.63 26.19C58.63 22.28 58.63 10.09 58.63 10.09H61.11C61.2188 10.0858 61.3273 10.1041 61.4287 10.1438C61.5301 10.1835 61.6222 10.2438 61.6992 10.3208C61.7762 10.3978 61.8365 10.4899 61.8762 10.5913C61.9159 10.6927 61.9342 10.8012 61.93 10.91V25.37C62.085 25.7844 62.3439 26.1519 62.6819 26.4374C63.0198 26.7228 63.4255 26.9166 63.86 27H66.06C66.06 27 66.78 26.77 67.3 27.69L68.4 29.62C68.4 29.62 68.48 30.17 67.99 30.17L68 30.19ZM41.44 29.36V11.19C41.4293 10.9707 41.491 10.7539 41.6157 10.5732C41.7404 10.3925 41.9212 10.2578 42.13 10.19H55.05C55.78 10.19 55.47 11.02 55.47 11.02C55.47 11.02 55.06 12.14 54.78 12.67C54.7017 12.8262 54.5839 12.9591 54.4383 13.0556C54.2927 13.1521 54.1243 13.2088 53.95 13.22H45.56C45.3588 13.2032 45.1591 13.2662 45.0039 13.3952C44.8486 13.5243 44.7503 13.7091 44.73 13.91V18.45H54.23C54.78 18.45 54.5 19.14 54.5 19.14C54.5 19.14 53.79 20.66 53.5 21.07C53.4022 21.1972 53.2765 21.3003 53.1326 21.3714C52.9887 21.4425 52.8305 21.4796 52.67 21.48H44.67V26.3C44.6814 26.4939 44.7545 26.679 44.8787 26.8283C45.0028 26.9777 45.1715 27.0834 45.36 27.13H54.17C54.3316 27.1128 54.4947 27.1423 54.64 27.215C54.7853 27.2876 54.9068 27.4004 54.99 27.54L56.23 29.47C56.6 30.03 56.09 30.16 56.09 30.16H42.26C41.68 30.19 41.43 29.36 41.43 29.36H41.44ZM33.3 28.22C33.3 29.79 32.47 30.15 32.47 30.15C32.47 30.15 18.32 38.31 17.4 38.83C17.1645 38.9495 16.9041 39.0117 16.64 39.0117C16.3759 39.0117 16.1155 38.9495 15.88 38.83C15.88 38.83 1.09 30.25 0.55 29.87C0.38776 29.7567 0.25377 29.6075 0.158397 29.4341C0.063025 29.2607 0.0088279 29.0677 0 28.87C0 28.87 0 11.87 0 11.09C0 10.31 1 9.76 1 9.76L15.75 1.21C16.0279 1.07096 16.3343 0.998566 16.645 0.998566C16.9557 0.998566 17.2621 1.07096 17.54 1.21C17.54 1.21 30.6 8.8 32 9.62C32.3964 9.79116 32.7297 10.0814 32.9537 10.4506C33.1777 10.8197 33.2812 11.2494 33.25 11.68C33.25 11.68 33.25 26.75 33.25 28.22H33.3ZM27.4 11.22C24.4 9.48 17.24 5.35 17.24 5.35C17.021 5.24082 16.7797 5.18399 16.535 5.18399C16.2903 5.18399 16.049 5.24082 15.83 5.35L4.22 12C4.22 12 3.45 12.46 3.46 13.08C3.47 13.7 3.46 27 3.46 27C3.471 27.1492 3.51534 27.2941 3.58976 27.4239C3.66418 27.5537 3.76678 27.6651 3.89 27.75C4.32 28.05 15.89 34.75 15.89 34.75C16.074 34.8447 16.278 34.8942 16.485 34.8942C16.692 34.8942 16.896 34.8447 17.08 34.75C17.8 34.35 28.9 27.96 28.9 27.96C28.9 27.96 29.55 27.68 29.55 26.45C29.55 26.09 29.55 24.71 29.55 22.98L16.53 30.88V27.88C16.5524 27.4862 16.6523 27.1006 16.8239 26.7454C16.9954 26.3902 17.2354 26.0723 17.53 25.81L29.09 18.81C29.425 18.3948 29.6178 17.883 29.64 17.35C29.64 16.08 29.64 14.98 29.64 14.28L16.53 22.2V19C16.517 18.6573 16.5855 18.3164 16.7298 18.0052C16.8741 17.6941 17.09 17.4215 17.36 17.21L27.4 11.22Z" fill="#409EFF"/>
</g>
<path fill-rule="evenodd" clip-rule="evenodd" d="M36.61 6.5H34.37V1.5C34.37 1.39 34.49 1.29 34.66 1.26L36.1 1C36.36 1 36.61 1.07 36.61 1.24V6.5Z" fill="#409EFF"/>
<path fill-rule="evenodd" clip-rule="evenodd" d="M34.37 4.29H36.61V9.4C36.61 9.51 36.5 9.61 36.33 9.65L34.88 9.91C34.62 9.96 34.37 9.84 34.37 9.67V4.29Z" fill="#409EFF"/>
<path d="M31.38 4.29H39.6C39.7061 4.29 39.8078 4.33214 39.8828 4.40716C39.9579 4.48217 40 4.58391 40 4.69V6.54H31V4.65C31.0095 4.55435 31.0531 4.46532 31.1229 4.39921C31.1927 4.3331 31.284 4.29434 31.38 4.29Z" fill="#409EFF"/>
<defs>
<clipPath id="clip0_0_1">
<rect width="153.71" height="38" fill="white" transform="translate(0 1)"/>
</clipPath>
</defs>
</svg>
