<svg class="svg-icon" style="width: 1em;height: 1em;vertical-align: middle;fill: currentColor;overflow: hidden;" viewBox="0 0 1024 1024" version="1.1" xmlns="http://www.w3.org/2000/svg"><path d="M4.143262 2.378831h1008.246153v1008.246154h-1008.246153z" fill="#000000" opacity=".01" /><path d="M509.5424 65.1264l346.742154 338.392615a94.523077 94.523077 0 1 1 5.230277 172.095016l-354.351262 359.817846-123.305354-145.250462V167.069538l125.684185-101.943138zM803.556431 493.095385H424.802462l0.015753 282.041107 84.5824 99.627323 318.274954-323.190153a94.144985 94.144985 0 0 1-24.103384-58.478277zM314.809108 220.412062v520.097476l-159.381662-162.264615A94.523077 94.523077 0 1 1 132.962462 394.098215L314.809108 220.396308z m-94.365539 272.699076c-1.2288 24.891077-12.098954 47.261538-28.939815 63.440739l82.345354 83.794708-0.015754-147.2512z m53.405539-176.9472l-96.901908 92.553847a94.869662 94.869662 0 0 1 36.407138 43.4176h60.479016l0.015754-135.971447zM507.037538 119.902523l-82.219323 66.670277-0.015753 265.562585h385.8432c3.418585-8.239262 7.971446-15.911385 13.469538-22.764308L507.037538 119.886769z" fill="#A8ADBB" /></svg>