<svg width="416" height="84" viewBox="0 0 416 84" fill="none" xmlns="http://www.w3.org/2000/svg">
<path d="M0.333333 81C0.333333 79.5272 1.52724 78.3333 3 78.3333C4.47276 78.3333 5.66667 79.5272 5.66667 81C5.66667 82.4728 4.47276 83.6667 3 83.6667C1.52724 83.6667 0.333333 82.4728 0.333333 81ZM378.779 77.5658L379.231 77.7796L378.779 77.5658ZM3 80.5L373.355 80.5V81.5L3 81.5V80.5ZM378.327 77.352L414.548 0.786184L415.452 1.21382L379.231 77.7796L378.327 77.352ZM373.355 80.5C375.482 80.5 377.418 79.2742 378.327 77.352L379.231 77.7796C378.156 80.0513 375.868 81.5 373.355 81.5V80.5Z" fill="#ffffff"/>
</svg>
