<svg width="210" height="46" viewBox="0 0 210 46" fill="none" xmlns="http://www.w3.org/2000/svg">
<path d="M32.749 0.199997C33.5597 1.01066 33.965 2.056 33.965 3.336C33.965 4.40266 33.7303 5.49066 33.261 6.6L16.877 45L16.173 45.32L0.0450001 0.199997H5.485L18.861 38.088L32.493 6.6C32.9623 5.53333 33.197 4.424 33.197 3.272C33.197 2.12 32.877 1.224 32.237 0.584L32.749 0.199997ZM71.139 0.199997H71.971V25.8C71.971 32.4987 70.6483 37.4267 68.003 40.584C65.3577 43.6987 61.9017 45.256 57.635 45.256C54.947 45.256 52.6643 45.0213 50.787 44.552C48.9097 44.04 47.139 43.1227 45.475 41.8C42.0617 39.1547 40.355 33.8213 40.355 25.8V0.199997H45.667V25.736C45.667 33.5013 46.8403 38.6853 49.187 41.288C50.3817 42.568 51.619 43.4427 52.899 43.912C54.2217 44.3813 55.8003 44.616 57.635 44.616C61.731 44.616 64.995 43.1227 67.427 40.136C69.9017 37.1067 71.139 32.3067 71.139 25.736V0.199997ZM105.452 0.199997V0.839996H85.292V20.04H103.98V20.68H85.292V44.36H106.86V45H79.98V0.199997H105.452ZM143.749 0.199997C144.56 1.01066 144.965 2.056 144.965 3.336C144.965 4.40266 144.73 5.49066 144.261 6.6L127.877 45L127.173 45.32L111.045 0.199997H116.485L129.861 38.088L143.493 6.6C143.962 5.53333 144.197 4.424 144.197 3.272C144.197 2.12 143.877 1.224 143.237 0.584L143.749 0.199997ZM165.179 45H159.867V0.839996H148.795V0.199997H176.315V0.839996H165.179V45ZM208.202 0.199997V0.839996H188.042V20.04H206.73V20.68H188.042V44.36H209.61V45H182.73V0.199997H208.202Z" fill="white"/>
</svg>
