
	<svg xmlns="http://www.w3.org/2000/svg" xmlns:xlink="http://www.w3.org/1999/xlink" version="1.1"  viewBox="0 0 100 100">




            <g transform="
                    translate(50 50)
                    translate(0 0)  scale(1)  
                    translate(-50 -50)
                    ">


                <g transform="scale(3.115264945592432) translate(0 4.049999237060547)" id="picture"><path d="M31.9 22.6L25.7 8.7C25.3 7.6 24.2 7 23 7s-2.3.7-2.7 1.8L19 11.5l-4.3-9.7C14.3.7 13.2 0 12 0S9.7.7 9.3 1.8L.1 22.6c-.1.3-.1.7.1.9.1.4.5.5.8.5h30c.3 0 .7-.2.8-.5s.3-.6.1-.9zm-20.8-20c.2-.6.7-.6.9-.6s.7 0 .9.6l2.2 5-.9.9-2-2c-.1-.1-.2-.2-.4-.2s-.3.1-.4.2l-2 2.1-.3-1.4 2-4.6zM2.5 22l6-13.5.4 1.2c0 .2.2.3.3.3h.1c.2 0 .3 0 .4-.1l2.2-2.3 2 2c.2.2.5.2.7 0l1-1 2.5 5.8 3.4 7.6h-19zm21.2 0l-3.5-8 2-4.4c.1-.6.6-.6.8-.6s.7 0 .9.6L29.5 22h-5.8z"/></g>


            </g>


	</svg>
