
	<svg xmlns="http://www.w3.org/2000/svg" xmlns:xlink="http://www.w3.org/1999/xlink" version="1.1"  viewBox="0 0 100 100">




            <g transform="
                    translate(50 50)
                    translate(0 0)  scale(1)  
                    translate(-50 -50)
                    ">


                <g transform="scale(3.3333335452609725) translate(0.4999990463256836 -0.0000019073486328125)" id="picture"><path d="M25 22c-.8 0-1.6.3-2.3.7l-10.9-6.3c.1-.4.2-.9.2-1.4s-.1-.9-.2-1.4l10.9-6.3c.7.4 1.5.7 2.3.7 2.2 0 4-1.8 4-4s-1.8-4-4-4-4 1.8-4 4c0 .6.2 1.2.4 1.7l-10.4 6C10 10.1 8.1 9 6 9c-3.3 0-6 2.7-6 6s2.7 6 6 6c2.1 0 4-1.1 5-2.8l10.4 6c-.2.6-.4 1.2-.4 1.8 0 2.2 1.8 4 4 4s4-1.8 4-4-1.8-4-4-4zm0-20c1.1 0 2 .9 2 2s-.9 2-2 2-2-.9-2-2 .9-2 2-2zM6 19c-2.2 0-4-1.8-4-4s1.8-4 4-4 4 1.8 4 4-1.8 4-4 4zm19 9c-1.1 0-2-.9-2-2s.9-2 2-2 2 .9 2 2-.9 2-2 2z"/></g>


            </g>


	</svg>
