
	<svg xmlns="http://www.w3.org/2000/svg" xmlns:xlink="http://www.w3.org/1999/xlink" version="1.1"  viewBox="0 0 100 100">




            <g transform="
                    translate(50 50)
                    translate(0 0)  scale(1)  
                    translate(-50 -50)
                    ">


                <g transform="scale(3.115264945592432) translate(5.94999885559082 0.09999999403953552)" id="picture"><path d="M20 17.7c.2-.4.1-.8-.2-1.1l-3.5-4.1h2.8c.4 0 .7-.2.9-.6s.1-.8-.2-1.1L10.8.3c-.4-.4-1.1-.4-1.5 0l-9 10.5c-.3.3-.3.7-.2 1.1s.5.6.9.6h2.8L.3 16.6c-.3.3-.3.7-.2 1.1.2.4.5.6.9.6h2.8L.3 22.4c-.3.3-.3.7-.2 1.1.3.3.6.5 1 .5h6v7c0 .6.4 1 1 1h4c.6 0 1-.4 1-1v-7h6c.4 0 .7-.2.9-.6.2-.4.1-.8-.2-1.1l-3.5-4.1h2.8c.4 0 .7-.2.9-.5zm-5.9-1.5c-.4 0-.7.2-.9.6-.2.4-.1.8.2 1.1l3.5 4.1h-4.8c-.6 0-1 .4-1 1v7h-2v-7c0-.6-.4-1-1-1H3.3l3.5-4.1c.3-.3.3-.7.2-1.1-.1-.4-.6-.6-.9-.6H3.3l3.5-4.1c.3-.3.3-.7.2-1-.2-.4-.6-.6-.9-.6H3.3l6.8-8 6.8 7.9h-2.8c-.4 0-.7.2-.9.6-.2.4-.1.8.2 1.1l3.5 4.1h-2.8z M9.5 4.3L6.1 8.2c-.2.2-.2.5 0 .7.1.1.3.1.4.1s.3 0 .4-.1L10.3 5c.2-.2.2-.5-.1-.7-.2-.2-.5-.2-.7 0z"/></g>


            </g>


	</svg>
