
	<svg xmlns="http://www.w3.org/2000/svg" xmlns:xlink="http://www.w3.org/1999/xlink" version="1.1"  viewBox="0 0 100 100">




            <g transform="
                    translate(50 50)
                    translate(0 0)  scale(1)  
                    translate(-50 -50)
                    ">


                <g transform="scale(3.0959749396852723) translate(0.6500016450881958 0.10000002384185791)" id="picture"><path d="M30.5 20.1l-7-4 7-4c.4-.2.6-.7.5-1.1-.1-.4-.5-.7-1-.7l-4.2-.2 2-3.6c.3-.4.2-.9-.1-1.2-.3-.3-.8-.4-1.2-.2l-7 4v-8c0-.4-.3-.8-.7-1-.4-.1-.9.1-1.1.4l-2.1 3.6L13.5.5c-.2-.4-.7-.6-1.1-.4-.4.1-.7.5-.7 1v8.1l-7-4c-.6-.3-1.1-.2-1.4.1-.3.3-.4.8-.2 1.2l2 3.6-4.1.1c-.4 0-.8.3-1 .7-.1.4.1.9.5 1.1l7 4-7 4c-.4.2-.6.7-.5 1.1s.5.7 1 .7l4.1.3-2 3.6c-.2.4-.1.9.2 1.2s.8.4 1.2.2l7-4v8c0 .4.3.8.7 1 .4.1.9-.1 1.1-.4l2.1-3.6 2.1 3.6c.2.3.5.5.9.5h.3c.4-.1.7-.5.7-1v-8.1l7 4c.4.2.9.2 1.2-.2.3-.3.4-.8.2-1.2l-2-3.6L30 22c.4 0 .8-.3 1-.7.1-.5-.1-.9-.5-1.2zm-6.4 0c-.4 0-.7.2-.8.5-.2.3-.2.7 0 1l1.1 1.9-5.4-3.1c-.3-.2-.7-.2-1 0s-.5.5-.5.9v6.2l-1.1-1.9c-.2-.3-.5-.5-.9-.5s-.7.2-.9.5l-1.1 1.9v-6.2c0-.4-.2-.7-.5-.9-.3-.2-.7-.2-1 0l-5.4 3.1 1.1-1.9c.2-.3.2-.7 0-1-.2-.3-.5-.5-.9-.5H4.6L10 17c.3-.2.5-.5.5-.9s-.2-.7-.5-.9l-5.4-3.1h2.2c.4 0 .7-.2.8-.5.2-.3.2-.7 0-1l-1-1.9 5.4 3.1c.3.2.7.2 1 0s.5-.5.5-.9V4.7l1.1 1.9c.4.6 1.4.6 1.7 0l1.1-1.9v6.2c0 .4.2.7.5.9s.7.2 1 0l5.4-3.1-1.1 1.9c-.2.3-.2.7 0 1s.5.5.8.5h2.2L21 15.2c-.3.2-.5.5-.5.9s.2.7.5.9l5.4 3.1h-2.3z"/></g>


            </g>


	</svg>
