
	<svg xmlns="http://www.w3.org/2000/svg" xmlns:xlink="http://www.w3.org/1999/xlink" version="1.1"  viewBox="0 0 100 100">




            <g transform="
                    translate(50 50)
                    translate(0 0)  scale(1)  
                    translate(-50 -50)
                    ">


                <g transform="scale(3.3333333333333335)" id="picture"><path d="M15 0C6.7 0 0 6.7 0 15s6.7 15 15 15 15-6.7 15-15S23.3 0 15 0zm0 28C7.8 28 2 22.2 2 15S7.8 2 15 2s13 5.8 13 13-5.8 13-13 13z M20.6 8.1l-14 5.6c-.4.2-.7.6-.6 1 0 .4.4.8.8.9l6.3 1.3 1.3 6.3c.1.4.4.8.9.8h.1c.4 0 .8-.2.9-.6l5.6-14c.2-.4.1-.8-.2-1.1-.3-.3-.7-.4-1.1-.2zm-4.9 11.4l-.7-3.7c-.1-.4-.4-.7-.8-.8l-3.7-.7 8.7-3.5-3.5 8.7z"/></g>


            </g>


	</svg>
