
	<svg xmlns="http://www.w3.org/2000/svg" xmlns:xlink="http://www.w3.org/1999/xlink" version="1.1"  viewBox="0 0 100 100">




            <g transform="
                    translate(50 50)
                    translate(0 0)  scale(1)  
                    translate(-50 -50)
                    ">


                <g transform="scale(1.8867924528301887) translate(-4 -4)" id="picture"><path d="M57 42V4H19v.6L4.5 19H4v38h38v-.6L56.4 42h.6zM6 21h13v19.6l-13 13V21zm34 34H7.4l13-13H40v13zM21 40V21h19v19H21zm21-19.6l13-13V40H42V20.4zM53.6 6l-13 13H21V6h32.6zM19 7.4V19H7.4L19 7.4zm23 46.1V42h11.6L42 53.5z"/></g>


            </g>


	</svg>
