
	<svg xmlns="http://www.w3.org/2000/svg" xmlns:xlink="http://www.w3.org/1999/xlink" version="1.1"  viewBox="0 0 100 100">




            <g transform="
                    translate(50 50)
                    translate(0 0)  scale(1)  
                    translate(-50 -50)
                    ">


                <g transform="scale(3.0959753053263688) translate(5.09999942779541 0.30000001192092896)" id="picture"><path d="M21.1 6.7c-.6-1.3-1.3-2.5-2.4-3.5-1-1-2.2-1.8-3.5-2.4C12.5-.3 9.3-.3 6.6.8c-1.2.6-2.4 1.4-3.4 2.4S1.4 5.4.8 6.7C.3 8.1 0 9.5 0 11c0 1.1.2 2.2.6 3.3.3 1 .8 2 1.5 2.9.5.7 1 1.3 1.5 1.8l.4.5c.6.7 1.1 1.3 1.4 2.1.2.5.4 1.1.5 1.7 0 .7.1 1.4.1 2.2V29c0 1.7 1.3 3 3 3h4c1.7 0 3-1.3 3-3v-3.5c0-.8.1-1.5.2-2.2.1-.6.3-1.2.5-1.7.3-.7.8-1.4 1.4-2.1l.4-.5c.5-.6 1.1-1.1 1.5-1.8.6-.9 1.1-1.9 1.5-2.9.4-1.1.6-2.2.6-3.3-.1-1.5-.4-2.9-1-4.3zM14 24.9v1l-6-.8v-1l6 .8zm-6 1.2l6 .8v1l-6-.8v-1zm5 3.9H9c-.6 0-1-.4-1-1v-.9l6 .8v.1c0 .6-.4 1-1 1zm6.5-16.3c-.3.8-.7 1.7-1.2 2.5-.4.6-.8 1.1-1.3 1.6l-.5.5c-.7.8-1.4 1.6-1.8 2.7l-.6 2.1c0 .3-.1.6-.1.9l-2.6-.3V18c0-.8 0-1.5.2-2.3.3-1.2.7-2.2 1.2-3.1.3.1.6.1.9.1 1.1 0 2.1-.4 3-1.2 1.1-1.1 1.6-2.7 1-4.1-.1-.1-.2-.3-.3-.3-1.4-.5-3.1-.1-4.2 1-1.1 1-1.5 2.5-1.1 3.8-.6 1-1.1 2.2-1.4 3.5v.1c-.2-.3-.5-.5-.8-.6.3-1.3-.1-2.8-1.2-3.8-1.1-1.1-2.8-1.5-4.2-1-.1.2-.2.3-.3.4-.5 1.4-.1 3.1 1 4.2.8.8 1.9 1.3 3 1.3.3 0 .7-.1 1-.2.7.3 1.2 1.1 1.2 1.8v5.8l-2.7-.3V23c-.1-.8-.3-1.5-.6-2.1-.4-1.1-1.1-1.9-1.8-2.7l-.3-.5c-.5-.5-1-1-1.3-1.6-.5-.8-.9-1.6-1.2-2.5-.3-.8-.5-1.7-.5-2.6 0-1.2.2-2.4.7-3.5s1.1-2 1.9-2.9c.8-.8 1.8-1.5 2.9-1.9C8.6 2.2 9.8 2 11 2s2.4.2 3.5.7 2 1.1 2.9 1.9c.8.8 1.5 1.8 1.9 2.9.5 1.1.7 2.3.7 3.5 0 .9-.2 1.8-.5 2.7zM14 8.9c.8-.8 1.9-1.1 3-.8.2 1-.1 2-.9 2.8-.8.8-1.9 1.1-3 .8-.3-.9.1-2 .9-2.8zM6 14c-.8-.8-1.1-1.9-.9-3 1-.3 2.1.1 3 .9.8.8 1.1 1.9.9 3-1.1.3-2.2-.1-3-.9z"/></g>


            </g>


	</svg>
