
	<svg xmlns="http://www.w3.org/2000/svg" xmlns:xlink="http://www.w3.org/1999/xlink" version="1.1"  viewBox="0 0 100 100">




            <g transform="
                    translate(50 50)
                    translate(0 0)  scale(1)  
                    translate(-50 -50)
                    ">


                <g transform="scale(3.225806451612903) translate(0.5 0)" id="picture"><path d="M20 7.3V3c0-1.7-1.3-3-3-3h-4c-1.7 0-3 1.3-3 3v4.3c-3.1 1.8-5 5-5 8.6 0 5.4 4.3 9.9 9.7 10h.3c2.6 0 5.1-1 7-2.8 2-1.9 3-4.4 3-7.2 0-3.5-1.9-6.8-5-8.6zm.6 14.4C19 23.2 17 24 14.8 24c-4.3-.1-7.8-3.7-7.8-8 0-3 1.7-5.8 4.4-7.1.4-.2.6-.6.6-1V3c0-.6.4-1 1-1h4c.6 0 1 .4 1 1v4.9c0 .4.2.7.6.9 2.7 1.4 4.4 4.1 4.4 7.2 0 2.2-.9 4.2-2.4 5.7zM29 15h-2c-.6 0-1 .4-1 1s.4 1 1 1h2c.6 0 1-.4 1-1s-.4-1-1-1zM4 16c0-.6-.4-1-1-1H1c-.6 0-1 .4-1 1s.4 1 1 1h2c.6 0 1-.4 1-1zm11 11c-.6 0-1 .4-1 1v2c0 .6.4 1 1 1s1-.4 1-1v-2c0-.6-.4-1-1-1zm9.2-3.2c-.4-.4-1-.4-1.4 0s-.4 1 0 1.4l1.4 1.4c.2.2.5.3.7.3s.5-.1.7-.3c.4-.4.4-1 0-1.4l-1.4-1.4z M5.8 8.2c.2.2.5.3.7.3s.5-.1.7-.3c.4-.4.4-1 0-1.4L5.8 5.4c-.4-.4-1-.4-1.4 0s-.4 1 0 1.4l1.4 1.4zm0 15.6l-1.4 1.4c-.4.4-.4 1 0 1.4.2.2.5.3.7.3s.5-.1.7-.3l1.4-1.4c.4-.4.4-1 0-1.4-.4-.4-1-.4-1.4 0zM23.5 8.5c.3 0 .5-.1.7-.3l1.4-1.4c.4-.4.4-1 0-1.4s-1-.4-1.4 0l-1.4 1.4c-.4.4-.4 1 0 1.4.2.2.4.3.7.3zm1.7 3.3c.2.4.5.6.9.6.1 0 .3 0 .4-.1l1.8-.8c.5-.2.8-.8.5-1.3s-.8-.7-1.3-.5l-1.8.8c-.5.2-.7.8-.5 1.3zM4.8 20.2c-.2-.5-.8-.8-1.3-.5l-1.8.8c-.5.2-.8.8-.5 1.3.2.4.5.6.9.6.1 0 .3 0 .4-.1l1.8-.8c.5-.2.7-.8.5-1.3zm15.7 6.5c-.2-.5-.8-.7-1.3-.5s-.8.8-.5 1.3l.8 1.8c.2.4.5.6.9.6.1 0 .3 0 .4-.1.5-.2.8-.8.5-1.3l-.8-1.8zm7.8-6.3l-1.8-.8c-.5-.2-1.1 0-1.3.5-.2.5 0 1.1.5 1.3l1.8.8c.1.1.3.1.4.1.4 0 .8-.2.9-.6.3-.5 0-1.1-.5-1.3zM1.7 11.6l1.8.8c.1.1.3.1.4.1.4 0 .8-.2.9-.6.2-.5 0-1.1-.5-1.3l-1.9-.9c-.5-.2-1.1 0-1.3.5-.2.6.1 1.2.6 1.4zm9.1 14.6c-.5-.2-1.1 0-1.3.5l-.8 1.8c-.2.5 0 1.1.5 1.3.1.1.3.1.4.1.4 0 .8-.2.9-.6l.8-1.8c.2-.5 0-1.1-.5-1.3z"/></g>


            </g>


	</svg>
