
	<svg xmlns="http://www.w3.org/2000/svg" xmlns:xlink="http://www.w3.org/1999/xlink" version="1.1"  viewBox="0 0 100 100">




            <g transform="
                    translate(50 50)
                    translate(0 0)  scale(1)  
                    translate(-50 -50)
                    ">


                <g transform="scale(3.134796275731344) translate(1.9499998092651367 0)" id="picture"><path d="M14 0C6.3 0 0 6.3 0 14.1c0 6.7 9.8 15 12.8 17.4.4.3.8.4 1.2.4s.9-.1 1.2-.4c3-2.4 12.8-10.8 12.8-17.4C28 6.3 21.7 0 14 0zm0 30C8.2 25.3 2 18.7 2 14.1 2 7.4 7.4 2 14 2s12 5.4 12 12.1c0 4.6-6.2 11.2-12 15.9z M5 10.3c-.4 0-.7.3-.7.7-.1.4-.9 3.9 1 5.8 1 1 2.4 1.2 3.6 1.2 1.1 0 2-.2 2.2-.3.4-.1.6-.4.7-.7.1-.4.9-3.9-1-5.8s-5.4-1-5.8-.9zm4.9 5.6c-1 .1-2.6.2-3.3-.5-.7-.7-.7-2.3-.5-3.3 1-.1 2.6-.2 3.3.5.7.8.7 2.3.5 3.3zM23.7 11c-.1-.4-.4-.6-.7-.7-.4-.1-3.9-.9-5.8 1s-1.1 5.4-1 5.8.4.6.7.7c.2 0 1.1.3 2.2.3 1.2 0 2.6-.2 3.6-1.2 2-2 1.1-5.5 1-5.9zm-2.3 4.4c-.7.7-2.3.7-3.3.5-.1-1-.2-2.6.5-3.3s2.3-.7 3.3-.5c.2 1 .2 2.5-.5 3.3z"/></g>


            </g>


	</svg>
