
	<svg xmlns="http://www.w3.org/2000/svg" xmlns:xlink="http://www.w3.org/1999/xlink" version="1.1"  viewBox="0 0 100 100">




            <g transform="
                    translate(50 50)
                    translate(0 0)  scale(1)  
                    translate(-50 -50)
                    ">


                <g transform="scale(3.2051283226916114) translate(3.59999942779541 1.2999999523162842)" id="picture"><path d="M23.6 3.8C15.9-1.3 8.2-1.3.5 3.8c-.3.2-.5.5-.5.8v13.9c0 5 4.6 9.4 11.7 11.4h.6C19.4 28 24 23.5 24 18.6v-14c0-.3-.2-.6-.4-.8zM22 18.6c0 4-3.9 7.7-10 9.4-6.1-1.8-10-5.4-10-9.4V5.2C8.7 1 15.3 1 22 5.2v13.4z M6.7 14.3c-.4-.4-1-.4-1.4 0s-.4 1 0 1.4l4 4c.2.2.4.3.7.3s.5-.1.7-.3l8-8c.4-.4.4-1 0-1.4s-1-.4-1.4 0L10 17.6l-3.3-3.3z"/></g>


            </g>


	</svg>
