
	<svg xmlns="http://www.w3.org/2000/svg" xmlns:xlink="http://www.w3.org/1999/xlink" version="1.1"  viewBox="0 0 100 100">




            <g transform="
                    translate(50 50)
                    translate(0 0)  scale(1)  
                    translate(-50 -50)
                    ">


                <g transform="scale(3.225806451612903)" id="picture"><path d="M27 9h3c.6 0 1-.4 1-1V1c0-.6-.4-1-1-1h-7c-.6 0-1 .4-1 1v2c0 1.7-1.3 3-3 3s-3-1.3-3-3V1c0-.6-.4-1-1-1H8c-.6 0-1 .4-1 1v6H5c-2.8 0-5 2.2-5 5s2.2 5 5 5h2v6c0 .6.4 1 1 1h6v2c0 2.8 2.2 5 5 5s5-2.2 5-5v-2h6c.6 0 1-.4 1-1v-7c0-.6-.4-1-1-1h-3c-1.7 0-3-1.3-3-3s1.3-3 3-3zm0 8h2v5h-6c-.6 0-1 .4-1 1v3c0 1.7-1.3 3-3 3s-3-1.3-3-3v-3c0-.6-.4-1-1-1H9v-6c0-.6-.4-1-1-1H5c-1.7 0-3-1.3-3-3s1.3-3 3-3h3c.6 0 1-.4 1-1V2h5v1c0 2.8 2.2 5 5 5s5-2.2 5-5V2h5v5h-2c-2.8 0-5 2.2-5 5s2.2 5 5 5z"/></g>


            </g>


	</svg>
