
	<svg xmlns="http://www.w3.org/2000/svg" xmlns:xlink="http://www.w3.org/1999/xlink" version="1.1"  viewBox="0 0 100 100">




            <g transform="
                    translate(50 50)
                    translate(0 0)  scale(1)  
                    translate(-50 -50)
                    ">


                <g transform="scale(3.278688524590164) translate(0.24999946355819702 0.29999998211860657)" id="picture"><path d="M15 11c-2.2 0-4 1.8-4 4s1.8 4 4 4 4-1.8 4-4-1.8-4-4-4zm0 6c-1.1 0-2-.9-2-2s.9-2 2-2 2 .9 2 2-.9 2-2 2z M23.9 15.2c-.1-.1-.1-.3 0-.4l5.6-8.1c.7-.9.5-2.2-.3-3l-3-3c-.8-.8-2.1-.9-3-.3L15.1 6c-.1.1-.3.1-.4 0L6.7.4c-.9-.7-2.2-.5-3 .3l-3 3c-.8.8-.9 2.1-.3 3L6 14.8c.1.1.1.3 0 .4l-5.6 8c-.6.9-.5 2.2.2 3l3 3.1c.8.8 2.1.9 3 .3l8.1-5.6c.1-.1.3-.1.4 0l8.1 5.6c.4.3.9.4 1.4.4.6 0 1.2-.2 1.7-.7l3-3.1c.8-.8.9-2.1.2-3l-5.6-8zm4 9.6l-3 3.1c-.1.1-.3.1-.5 0l-8.1-5.6c-.4-.3-.9-.4-1.3-.4-.5 0-.9.1-1.3.4l-8.1 5.6c-.1.1-.3.1-.5 0l-3-3.1c-.1-.1-.1-.3 0-.4l5.6-8c.6-.8.6-1.9 0-2.7L2.1 5.6c-.1-.1-.1-.3 0-.5l3-3c.2-.1.4-.1.5 0l8.1 5.6c.8.6 1.9.6 2.7 0l8.1-5.6c.1-.1.3-.1.5 0l3 3c.1.1.1.3 0 .4l-5.6 8.1c-.6.8-.6 1.9 0 2.7l5.6 8c0 .2 0 .4-.1.5z"/></g>


            </g>


	</svg>
