
	<svg xmlns="http://www.w3.org/2000/svg" xmlns:xlink="http://www.w3.org/1999/xlink" version="1.1"  viewBox="0 0 100 100">




            <g transform="
                    translate(50 50)
                    translate(0 0)  scale(1)  
                    translate(-50 -50)
                    ">


                <g transform="scale(3.3112581944937247) translate(1.9371509552001953e-7 3.150000214576721)" id="picture"><path d="M29.9 22.5l-14-22c-.4-.6-1.3-.6-1.7 0l-14 22c-.2.3-.2.7 0 1 .2.3.5.5.9.5h28c.4 0 .7-.2.9-.5.2-.3.1-.7-.1-1zm-27-.5L15.1 2.8 27.3 22H2.9z M14.7 7.1l-7.5 12c-.1.2-.1.3 0 .5.1.3.2.4.4.4h15c.3 0 .5-.2.5-.5s-.2-.5-.5-.5H8.5l6.6-10.6 5.5 8.7c.1.2.5.3.7.2.2-.1.3-.5.2-.7l-5.9-9.4c-.4-.4-.7-.4-.9-.1z"/></g>


            </g>


	</svg>
