
	<svg xmlns="http://www.w3.org/2000/svg" xmlns:xlink="http://www.w3.org/1999/xlink" version="1.1"  viewBox="0 0 100 100">




            <g transform="
                    translate(50 50)
                    translate(0 0)  scale(1)  
                    translate(-50 -50)
                    ">


                <g transform="scale(3.125) translate(6.099998950958252 0)" id="picture"><path d="M19.4 9.5c-.8-1.6-2.3-2.8-3.7-3.8-.3-.2-.7-.5-.9-.7-2-1.5-2.8-2.7-2.8-4 0-.6-.4-1-1-1s-1 .4-1 1v21.6c-1.3-.7-3-.8-4.9-.1-1.4.5-3.2 1.4-4.3 3.1-.8 1.3-1 2.7-.5 4C.9 31 2.4 31.8 3.7 32h.9c2.6 0 5.6-1.7 6.9-3.9.4-.7.6-1.5.5-2.3V8.3c1.4.1 2.8.8 3.6 1.8 1.1 1.3 1.2 2.9 1.1 4-.1 1.5-.7 3-1.2 4.5-.2.5 0 1 .4 1.2s1 .1 1.3-.2c1.7-2 2.7-4.5 2.7-7 .1-1.1-.1-2.2-.5-3.1zM9.7 27.1c-.9 1.6-3.6 3.2-5.7 2.8-.8-.1-1.6-.5-1.9-1.2-.3-.6-.1-1.5.3-2.2.6-.9 1.8-1.8 3.3-2.3.5 0 1.2-.2 2-.2.7 0 1.4.2 1.9.7.6.7.5 1.7.1 2.4zM12 6.3V5.2c.5.5 1 .9 1.5 1.3-.5-.1-1-.2-1.5-.2z"/></g>


            </g>


	</svg>
