<svg width="729" height="98" viewBox="0 0 729 98" fill="none" xmlns="http://www.w3.org/2000/svg">
    <path d="M106 0H120L68 96H52L0 0H14L60 88L106 0ZM248.062 0V48C248.062 53.6667 247.979 58.8333 247.812 63.5C247.688 68.1667 247.208 72.3542 246.375 76.0625C245.583 79.7708 244.312 83 242.562 85.75C240.812 88.5 238.312 90.7917 235.062 92.625C231.812 94.4167 227.667 95.75 222.625 96.625C217.625 97.5417 211.458 98 204.125 98H176C168.667 98 162.479 97.5417 157.438 96.625C152.438 95.75 148.312 94.4167 145.062 92.625C141.812 90.7917 139.292 88.5 137.5 85.75C135.75 83 134.458 79.7708 133.625 76.0625C132.833 72.3542 132.375 68.1667 132.25 63.5C132.125 58.8333 132.062 53.6667 132.062 48V0H144.062V48C144.062 54 144.104 59.1667 144.188 63.5C144.312 67.7917 144.667 71.4167 145.25 74.375C145.833 77.3333 146.75 79.7083 148 81.5C149.292 83.2917 151.125 84.6667 153.5 85.625C155.875 86.5833 158.875 87.2292 162.5 87.5625C166.167 87.8542 170.667 88 176 88H204.125C209.417 88 213.896 87.8542 217.562 87.5625C221.229 87.2292 224.229 86.5833 226.562 85.625C228.938 84.6667 230.771 83.2917 232.062 81.5C233.354 79.7083 234.292 77.3333 234.875 74.375C235.5 71.4167 235.854 67.7917 235.938 63.5C236.021 59.1667 236.062 54 236.062 48L236 0H248.062ZM268.125 96V0H364.125V10H280.125V42H360.125V52H280.125V86H364.125V96H268.125ZM478.125 0H492.125L440.125 96H424.125L372.125 0H386.125L432.125 88L478.125 0ZM612.125 0V10H564.125V96H552.125V10H504.125V0H612.125ZM632.125 96V0H728.125V10H644.125V42H724.125V52H644.125V86H728.125V96H632.125Z" fill="url(#paint0_linear_344_12)"/>
    <defs>
        <linearGradient id="paint0_linear_344_12" x1="-4" y1="28.5" x2="732.998" y2="26.5043" gradientUnits="userSpaceOnUse">
            <stop stop-color="#F8592E"/>
            <stop offset="0.479167" stop-color="#9F6DF1"/>
            <stop offset="1" stop-color="#15D387"/>
        </linearGradient>
    </defs>
</svg>
