<svg width="138" height="30" viewBox="0 0 138 30" fill="none" xmlns="http://www.w3.org/2000/svg">
<path d="M11.4208 29.576L0.38075 9.128H5.66075L13.1488 24.92L10.4128 24.824L17.2768 9.128H22.2688L11.6608 29.576H11.4208ZM33.3635 29.768C31.5715 29.768 30.0835 29.224 28.8995 28.136C27.7475 27.016 27.1395 25.576 27.0755 23.816V9.128H31.5395V22.232C31.6035 23.32 31.9075 24.2 32.4515 24.872C33.0275 25.544 33.9235 25.896 35.1395 25.928C36.2595 25.928 37.2515 25.608 38.1155 24.968C39.0115 24.296 39.7315 23.4 40.2755 22.28C40.8195 21.128 41.0915 19.832 41.0915 18.392V9.128H45.5555V29H41.4755L41.0915 24.104L41.3315 24.968C40.9475 25.896 40.3555 26.728 39.5555 27.464C38.7875 28.168 37.8755 28.728 36.8195 29.144C35.7635 29.56 34.6115 29.768 33.3635 29.768ZM62.4946 29.48C60.2226 29.48 58.2706 29.032 56.6386 28.136C55.0066 27.208 53.7426 25.96 52.8466 24.392C51.9826 22.792 51.5506 20.968 51.5506 18.92C51.5506 16.968 52.0466 15.192 53.0386 13.592C54.0306 11.992 55.3586 10.712 57.0226 9.752C58.6866 8.792 60.5426 8.312 62.5906 8.312C65.2146 8.312 67.3906 9.08 69.1186 10.616C70.8466 12.152 72.0146 14.264 72.6226 16.952L56.2546 22.712L55.1986 20.072L68.6386 15.176L67.6786 15.8C67.2946 14.744 66.6546 13.832 65.7586 13.064C64.8626 12.264 63.6946 11.864 62.2546 11.864C61.0386 11.864 59.9506 12.168 58.9906 12.776C58.0306 13.352 57.2786 14.152 56.7346 15.176C56.1906 16.2 55.9186 17.368 55.9186 18.68C55.9186 20.056 56.2066 21.272 56.7826 22.328C57.3586 23.352 58.1426 24.168 59.1346 24.776C60.1586 25.352 61.3106 25.64 62.5906 25.64C63.4546 25.64 64.2866 25.48 65.0866 25.16C65.9186 24.84 66.6866 24.424 67.3906 23.912L69.4546 27.224C68.4626 27.896 67.3426 28.44 66.0946 28.856C64.8786 29.272 63.6786 29.48 62.4946 29.48ZM85.577 29.576L74.537 9.128H79.817L87.305 24.92L84.569 24.824L91.433 9.128H96.425L85.817 29.576H85.577ZM103.152 0.391999H107.616V9.224H113.088V12.728H107.616V29H103.152V12.728H99.5038V9.224H103.152V0.391999ZM127.698 29.48C125.426 29.48 123.474 29.032 121.842 28.136C120.21 27.208 118.946 25.96 118.05 24.392C117.186 22.792 116.754 20.968 116.754 18.92C116.754 16.968 117.25 15.192 118.242 13.592C119.234 11.992 120.562 10.712 122.226 9.752C123.89 8.792 125.746 8.312 127.794 8.312C130.418 8.312 132.594 9.08 134.322 10.616C136.05 12.152 137.218 14.264 137.826 16.952L121.458 22.712L120.402 20.072L133.842 15.176L132.882 15.8C132.498 14.744 131.858 13.832 130.962 13.064C130.066 12.264 128.898 11.864 127.458 11.864C126.242 11.864 125.154 12.168 124.194 12.776C123.234 13.352 122.482 14.152 121.938 15.176C121.394 16.2 121.122 17.368 121.122 18.68C121.122 20.056 121.41 21.272 121.986 22.328C122.562 23.352 123.346 24.168 124.338 24.776C125.362 25.352 126.514 25.64 127.794 25.64C128.658 25.64 129.49 25.48 130.29 25.16C131.122 24.84 131.89 24.424 132.594 23.912L134.658 27.224C133.666 27.896 132.546 28.44 131.298 28.856C130.082 29.272 128.882 29.48 127.698 29.48Z" fill="black"/>
</svg>
