<svg width="365" height="49" viewBox="0 0 365 49" fill="none" xmlns="http://www.w3.org/2000/svg">
<path d="M53 0H60L34 48H26L0 0H7L30 44L53 0ZM124.031 0V24C124.031 26.8333 123.99 29.4167 123.906 31.75C123.844 34.0833 123.604 36.1771 123.188 38.0312C122.792 39.8854 122.156 41.5 121.281 42.875C120.406 44.25 119.156 45.3958 117.531 46.3125C115.906 47.2083 113.833 47.875 111.312 48.3125C108.812 48.7708 105.729 49 102.062 49H88C84.3333 49 81.2396 48.7708 78.7188 48.3125C76.2188 47.875 74.1562 47.2083 72.5312 46.3125C70.9062 45.3958 69.6458 44.25 68.75 42.875C67.875 41.5 67.2292 39.8854 66.8125 38.0312C66.4167 36.1771 66.1875 34.0833 66.125 31.75C66.0625 29.4167 66.0312 26.8333 66.0312 24V0H72.0312V24C72.0312 27 72.0521 29.5833 72.0938 31.75C72.1562 33.8958 72.3333 35.7083 72.625 37.1875C72.9167 38.6667 73.375 39.8542 74 40.75C74.6458 41.6458 75.5625 42.3333 76.75 42.8125C77.9375 43.2917 79.4375 43.6146 81.25 43.7812C83.0833 43.9271 85.3333 44 88 44H102.062C104.708 44 106.948 43.9271 108.781 43.7812C110.615 43.6146 112.115 43.2917 113.281 42.8125C114.469 42.3333 115.385 41.6458 116.031 40.75C116.677 39.8542 117.146 38.6667 117.438 37.1875C117.75 35.7083 117.927 33.8958 117.969 31.75C118.01 29.5833 118.031 27 118.031 24L118 0H124.031ZM134.062 48V0H182.062V5H140.062V21H180.062V26H140.062V43H182.062V48H134.062ZM239.062 0H246.062L220.062 48H212.062L186.062 0H193.062L216.062 44L239.062 0ZM306.062 0V5H282.062V48H276.062V5H252.062V0H306.062ZM316.062 48V0H364.062V5H322.062V21H362.062V26H322.062V43H364.062V48H316.062Z" fill="white"/>
</svg>
