<svg width="478" height="94" viewBox="0 0 478 94" fill="none" xmlns="http://www.w3.org/2000/svg">
<path d="M75.125 0.875C76.8333 0.875 77.6875 1.77083 77.6875 3.5625C77.6875 4.47917 77.3958 5.54167 76.8125 6.75C76.2708 7.91667 75.8333 8.875 75.5 9.625L41.5625 93.4375L0.4375 1.5625H34.5625L54.4375 48.3125L68.375 13.4375C69.875 9.6875 70.8542 6.97917 71.3125 5.3125C71.7708 3.64583 72.2708 2.5 72.8125 1.875C73.3542 1.20833 74.125 0.875 75.125 0.875ZM168.75 4.1875L168.375 11.9375V49.3125C168.375 61.6458 164.833 71.6667 157.75 79.375C150.5 87.25 140.875 91.1875 128.875 91.1875C116.042 91.1875 106.042 87.1667 98.875 79.125C92.2083 71.75 88.875 62.2917 88.875 50.75V1.5625H120.812V85.875C124.021 86.3333 127.542 86.5625 131.375 86.5625C135.25 86.5625 139.167 85.7917 143.125 84.25C147.125 82.7083 150.625 80.2917 153.625 77C160.125 69.9167 163.417 59.5625 163.5 45.9375V12.0625C163.5 10.8125 163.396 9.33333 163.188 7.625C163.021 5.91667 162.938 4.75 162.938 4.125C162.938 1.95833 163.958 0.875 166 0.875C167.833 0.875 168.75 1.97917 168.75 4.1875ZM243.75 84.625C245.875 84.625 246.938 85.4583 246.938 87.125C246.938 87.875 246.479 88.5417 245.562 89.125C244.646 89.7083 243.062 90 240.812 90H187.875V1.5625C204.292 1.5625 220.708 1.5625 237.125 1.5625L242.25 1.375C245.375 1.375 246.938 2.29167 246.938 4.125C246.938 4.83333 246.667 5.5 246.125 6.125C245.625 6.70833 245.042 7 244.375 7C243.292 7 242.146 6.875 240.938 6.625C239.146 6.25 236.688 6.0625 233.562 6.0625H219.75V25.125H231.125C231.125 25.125 233.688 25.0208 238.812 24.8125C239.729 24.8125 240.5 25.0417 241.125 25.5C241.792 25.9167 242.125 26.5208 242.125 27.3125C242.125 29.0625 240.958 29.9375 238.625 29.9375L235.938 29.875C234.562 29.75 233.417 29.6875 232.5 29.6875H219.75V85.4375H233.562C236.646 85.4375 238.833 85.3125 240.125 85.0625C241.667 84.7708 242.875 84.625 243.75 84.625ZM326.75 0.875C328.458 0.875 329.312 1.77083 329.312 3.5625C329.312 4.47917 329.021 5.54167 328.438 6.75C327.896 7.91667 327.458 8.875 327.125 9.625L293.188 93.4375L252.062 1.5625H286.188L306.062 48.3125L320 13.4375C321.5 9.6875 322.479 6.97917 322.938 5.3125C323.396 3.64583 323.896 2.5 324.438 1.875C324.979 1.20833 325.75 0.875 326.75 0.875ZM406.625 3.1875C406.625 5.10417 404.604 6.0625 400.562 6.0625H386.062V90H354.062V6.0625H344.688C341.479 6.0625 339.271 6.20833 338.062 6.5C336.479 6.83333 335.333 7 334.625 7C332.5 7 331.438 6.16667 331.438 4.5C331.438 2.54167 333.5 1.5625 337.625 1.5625H393.375C396.25 1.5625 398.375 1.4375 399.75 1.1875C401.417 0.895833 402.667 0.75 403.5 0.75C405.583 0.75 406.625 1.5625 406.625 3.1875ZM474.75 84.625C476.875 84.625 477.938 85.4583 477.938 87.125C477.938 87.875 477.479 88.5417 476.562 89.125C475.646 89.7083 474.062 90 471.812 90H418.875V1.5625C435.292 1.5625 451.708 1.5625 468.125 1.5625L473.25 1.375C476.375 1.375 477.938 2.29167 477.938 4.125C477.938 4.83333 477.667 5.5 477.125 6.125C476.625 6.70833 476.042 7 475.375 7C474.292 7 473.146 6.875 471.938 6.625C470.146 6.25 467.688 6.0625 464.562 6.0625H450.75V25.125H462.125C462.125 25.125 464.688 25.0208 469.812 24.8125C470.729 24.8125 471.5 25.0417 472.125 25.5C472.792 25.9167 473.125 26.5208 473.125 27.3125C473.125 29.0625 471.958 29.9375 469.625 29.9375L466.938 29.875C465.562 29.75 464.417 29.6875 463.5 29.6875H450.75V85.4375H464.562C467.646 85.4375 469.833 85.3125 471.125 85.0625C472.667 84.7708 473.875 84.625 474.75 84.625Z" fill="url(#paint0_linear_344_12)"/>
<defs>
<linearGradient id="paint0_linear_344_12" x1="1" y1="42" x2="484" y2="41" gradientUnits="userSpaceOnUse">
<stop stop-color="#F8592E"/>
<stop offset="0.479167" stop-color="#9F6DF1"/>
<stop offset="1" stop-color="#15D387"/>
</linearGradient>
</defs>
</svg>
