<svg width="201" height="199" viewBox="0 0 201 199" fill="none" xmlns="http://www.w3.org/2000/svg">
<g clip-path="url(#clip0_341_63)">
<path d="M92.963 196.174L0.736359 32.7621C-0.386552 30.7725 0.357417 28.3157 2.46937 27.3244C23.566 17.4219 124.977 -27.7805 103.062 29.1313C83.5668 79.7578 161.663 49.5792 194 35.3254C197.843 33.6316 201.795 37.9268 199.573 41.3922L100.181 196.367C98.4951 198.996 94.4949 198.889 92.963 196.174Z" fill="url(#paint0_linear_341_63)"/>
<path d="M94.1786 197.832L36.9981 97.8642C36.3019 96.647 36.7631 95.1441 38.0726 94.5376C51.1525 88.4798 114.027 60.8271 100.44 95.643C88.353 126.614 136.772 108.152 156.822 99.4323C159.204 98.3961 161.654 101.024 160.277 103.144L98.6535 197.95C97.6085 199.558 95.1284 199.493 94.1786 197.832Z" fill="url(#paint1_linear_341_63)"/>
</g>
<defs>
<linearGradient id="paint0_linear_341_63" x1="100.215" y1="0.936707" x2="100.215" y2="198.276" gradientUnits="userSpaceOnUse">
<stop stop-color="#F54E1C"/>
<stop offset="1" stop-color="#FF7C6B"/>
</linearGradient>
<linearGradient id="paint1_linear_341_63" x1="98.675" y1="78.3949" x2="98.675" y2="216.937" gradientUnits="userSpaceOnUse">
<stop stop-color="#B160FF"/>
<stop offset="1" stop-color="#15D387"/>
</linearGradient>
<clipPath id="clip0_341_63">
<rect width="200" height="197.339" fill="white" transform="translate(0.215332 0.936707)"/>
</clipPath>
</defs>
</svg>
